<?xml version="1.0" standalone="no"?>
<!DOCTYPE svg PUBLIC "-//W3C//DTD SVG 20010904//EN"
 "http://www.w3.org/TR/2001/REC-SVG-20010904/DTD/svg10.dtd">
<svg version="1.0" xmlns="http://www.w3.org/2000/svg"
 width="406.000000pt" height="202.000000pt" viewBox="0 0 406.000000 202.000000"
 preserveAspectRatio="xMidYMid meet">

<g transform="translate(0.000000,202.000000) scale(0.100000,-0.100000)"
fill="#000000" stroke="none">
<path d="M50 1830 l0 -190 270 0 270 0 0 -820 0 -820 230 0 230 0 0 820 0 820
275 0 275 0 0 190 0 190 -775 0 -775 0 0 -190z"/>
<path d="M2097 2013 c-3 -5 -141 -453 -307 -998 -166 -545 -305 -996 -307
-1003 -4 -9 47 -12 233 -12 l239 0 71 258 71 257 290 3 289 2 28 -92 c15 -51
50 -168 78 -260 l51 -168 245 0 244 0 -7 27 c-5 22 -564 1827 -606 1961 l-11
32 -298 0 c-164 0 -301 -3 -303 -7z m317 -460 c23 -94 157 -567 190 -670 l7
-23 -220 0 c-137 0 -221 4 -221 10 0 5 29 113 64 238 35 126 81 304 102 396
21 91 41 166 44 166 3 0 19 -53 34 -117z"/>
<path d="M3600 1010 l0 -1010 230 0 230 0 0 1010 0 1010 -230 0 -230 0 0
-1010z"/>
</g>
</svg>
