<?xml version="1.0" standalone="no"?>
<!DOCTYPE svg PUBLIC "-//W3C//DTD SVG 20010904//EN"
 "http://www.w3.org/TR/2001/REC-SVG-20010904/DTD/svg10.dtd">
<svg version="1.0" xmlns="http://www.w3.org/2000/svg"
 width="2127.000000pt" height="2056.000000pt" viewBox="0 0 2127.000000 2056.000000"
 preserveAspectRatio="xMidYMid meet">

<g transform="translate(0.000000,2056.000000) scale(0.100000,-0.100000)"
fill="#000000" stroke="none">
<path d="M10435 20163 c-142 -36 -246 -71 -437 -151 -143 -59 -164 -69 -361
-167 -254 -127 -307 -155 -368 -196 -30 -20 -106 -69 -169 -109 -63 -39 -142
-92 -175 -116 -33 -24 -87 -63 -120 -86 -150 -104 -372 -292 -617 -522 -172
-161 -638 -636 -679 -691 -12 -16 -72 -82 -133 -146 -108 -112 -220 -238 -328
-368 -29 -35 -73 -89 -98 -118 -25 -30 -61 -73 -80 -97 -19 -24 -67 -79 -106
-122 -38 -44 -85 -102 -103 -129 -19 -28 -46 -63 -61 -80 -23 -24 -356 -465
-410 -541 -8 -12 -46 -63 -85 -114 -38 -52 -92 -126 -120 -167 -97 -142 -261
-389 -285 -428 -51 -86 -85 -117 -238 -218 -195 -129 -174 -114 -333 -225
-193 -133 -240 -167 -373 -267 -65 -50 -130 -99 -145 -109 -14 -11 -42 -34
-62 -50 -20 -17 -71 -58 -114 -91 -81 -63 -121 -95 -244 -198 -40 -34 -112
-95 -160 -134 -165 -139 -346 -310 -700 -664 -403 -404 -517 -526 -776 -839
-33 -40 -78 -93 -101 -119 -100 -114 -572 -742 -691 -921 -274 -410 -323 -487
-413 -645 -68 -118 -216 -421 -245 -501 -10 -27 -22 -53 -26 -59 -4 -5 -24
-50 -44 -100 -20 -49 -45 -110 -55 -135 -10 -25 -28 -70 -39 -100 -12 -30 -26
-64 -31 -75 -32 -70 -133 -347 -229 -630 -38 -110 -73 -212 -79 -227 -6 -14
-25 -84 -42 -155 -17 -70 -40 -153 -49 -183 -10 -30 -26 -84 -35 -120 -10 -36
-33 -123 -52 -195 -18 -71 -40 -161 -49 -200 -8 -38 -24 -108 -35 -155 -63
-265 -129 -585 -130 -624 0 -16 -4 -45 -9 -65 -5 -20 -17 -83 -26 -141 -9 -58
-21 -121 -26 -141 -5 -20 -9 -50 -9 -68 0 -17 -4 -50 -10 -73 -23 -105 -40
-207 -40 -243 0 -22 -7 -58 -15 -80 -8 -22 -14 -64 -15 -93 0 -51 -32 -167
-51 -187 -12 -12 -11 -232 1 -319 7 -47 22 -90 44 -130 54 -97 95 -126 174
-126 87 0 143 58 253 265 17 33 44 78 59 100 15 22 53 90 84 150 32 61 79 148
106 195 27 47 58 102 69 122 12 21 38 65 59 97 20 33 57 96 82 141 25 45 74
129 109 188 35 59 83 141 106 182 23 41 60 104 83 140 127 198 152 239 171
278 12 24 66 110 119 191 116 178 163 254 187 301 28 56 84 148 147 242 32 47
58 89 58 93 0 9 414 638 609 925 98 143 147 204 271 332 132 138 256 246 323
285 40 23 54 16 82 -44 24 -52 26 -66 22 -143 -7 -117 -25 -269 -33 -282 -17
-27 -27 -333 -27 -858 -1 -565 5 -687 38 -895 8 -55 20 -127 24 -160 10 -69
10 -67 62 -285 21 -91 46 -185 55 -210 9 -25 22 -65 29 -90 8 -25 23 -74 34
-110 66 -215 224 -568 341 -760 21 -36 47 -78 56 -95 16 -29 128 -197 209
-313 22 -32 76 -102 120 -155 44 -54 99 -121 122 -150 54 -68 439 -446 529
-519 38 -31 104 -84 146 -118 104 -82 119 -102 107 -142 -5 -17 -35 -72 -68
-122 -215 -327 -382 -663 -498 -1001 -73 -215 -145 -523 -161 -700 -4 -38 -12
-77 -17 -85 -11 -16 -26 -278 -27 -450 0 -138 15 -351 26 -369 5 -8 13 -46 17
-85 11 -92 24 -164 37 -201 32 -96 70 -183 128 -289 92 -170 112 -201 176
-286 58 -77 307 -328 388 -391 76 -60 270 -189 355 -237 44 -25 118 -67 165
-93 290 -166 691 -320 1190 -457 77 -21 172 -42 273 -61 191 -36 183 -35 387
-57 193 -21 878 -31 933 -13 30 10 45 10 77 -1 31 -10 46 -11 63 -2 12 6 47
16 77 21 106 19 296 82 408 136 206 99 589 383 684 505 97 125 135 186 158
257 13 38 40 102 60 143 21 41 48 109 61 150 12 41 42 134 65 206 45 137 60
220 73 414 5 63 14 136 22 162 10 37 10 52 1 73 -42 91 18 184 99 156 18 -6
49 -11 70 -11 21 0 64 -7 96 -16 63 -17 177 -29 408 -44 161 -10 210 -20 247
-49 21 -18 23 -28 24 -113 1 -51 8 -140 17 -198 9 -58 23 -161 32 -230 39
-302 97 -486 232 -735 146 -267 234 -368 413 -471 145 -83 276 -141 335 -149
28 -4 100 -20 162 -36 61 -15 151 -33 200 -39 176 -21 220 -27 232 -34 59 -37
931 -38 989 -2 8 4 50 12 95 17 179 21 233 27 252 33 24 6 136 30 220 46 170
34 564 134 715 182 84 27 137 47 343 129 66 26 348 171 427 218 36 22 90 54
120 71 96 54 286 201 383 296 18 17 70 77 117 134 47 56 99 119 116 139 126
146 268 420 341 661 25 82 31 110 52 270 5 41 14 91 20 110 6 19 11 75 11 125
1 49 5 110 10 135 12 58 -7 367 -26 437 -8 28 -14 61 -14 73 0 21 -14 73 -88
310 -32 104 -77 221 -160 415 -38 90 -378 774 -438 883 -45 82 -46 83 -34 132
9 37 9 58 0 84 -6 20 -8 42 -3 50 4 7 67 68 138 133 149 137 528 518 577 580
18 23 69 86 113 140 115 142 129 161 251 343 135 201 168 258 274 470 86 170
141 297 189 435 16 44 42 116 59 160 17 44 33 96 37 115 4 19 22 85 40 145 41
134 77 293 81 359 2 27 8 63 13 80 9 32 29 180 35 271 2 28 8 75 14 105 33
171 43 726 17 1002 -9 90 -18 171 -21 180 -3 10 -10 64 -15 120 -6 57 -15 139
-21 183 -6 44 -11 121 -12 172 -1 84 1 94 23 117 21 23 33 26 85 26 75 0 112
-16 247 -108 57 -38 158 -103 224 -145 66 -41 130 -86 142 -99 12 -12 45 -75
73 -138 29 -63 76 -167 106 -230 30 -64 54 -120 54 -125 0 -12 415 -846 453
-910 17 -27 62 -111 102 -185 102 -191 177 -326 219 -394 20 -33 36 -63 36
-68 0 -4 23 -42 50 -84 28 -42 50 -81 50 -86 0 -5 13 -28 29 -51 15 -23 40
-66 55 -95 14 -29 61 -106 104 -171 42 -65 91 -142 107 -171 17 -28 44 -73 62
-98 18 -26 105 -155 194 -287 89 -132 176 -256 194 -275 18 -19 49 -61 69 -92
19 -32 48 -68 63 -80 15 -13 50 -44 78 -70 57 -53 130 -79 225 -81 69 -2 90
13 126 87 23 48 24 59 24 261 0 116 -4 215 -9 220 -5 6 -14 44 -20 85 -23 153
-39 239 -46 250 -12 19 -39 157 -90 445 -29 168 -42 241 -55 300 -5 22 -12 60
-15 85 -4 25 -14 72 -22 105 -9 33 -19 80 -23 105 -4 25 -21 110 -39 190 -17
80 -35 165 -40 190 -65 305 -204 921 -241 1065 -13 50 -69 260 -114 425 -40
151 -38 143 -188 605 -66 204 -129 390 -140 415 -11 25 -26 63 -33 85 -57 172
-179 412 -339 669 -74 119 -234 337 -320 436 -26 30 -78 91 -116 135 -38 44
-108 125 -155 180 -305 354 -1093 1147 -1335 1342 -19 15 -65 57 -103 92 -37
36 -77 71 -90 79 -12 8 -47 38 -77 67 -30 28 -69 63 -86 76 -17 13 -75 60
-129 104 -53 44 -112 91 -130 105 -18 14 -75 59 -126 100 -52 42 -106 84 -120
95 -15 11 -124 94 -243 185 -119 91 -241 181 -270 200 -53 35 -123 85 -241
172 -62 46 -377 254 -526 348 -85 53 -93 64 -212 246 -182 280 -386 582 -398
590 -5 3 -25 29 -43 59 -19 29 -70 100 -113 158 -43 57 -114 154 -157 213 -70
95 -157 205 -314 397 -23 29 -61 76 -83 105 -22 29 -60 76 -85 105 -72 83
-184 213 -244 281 -30 35 -109 126 -175 202 -66 76 -250 271 -410 432 -322
326 -464 454 -735 658 -63 48 -130 99 -149 113 -102 78 -380 265 -451 304 -25
13 -88 49 -140 79 -203 116 -298 168 -370 201 -190 88 -368 167 -375 167 -4 0
-21 6 -38 14 -93 42 -237 94 -457 164 -128 41 -136 42 -205 25z"/>
</g>
</svg>
