<?xml version="1.0" standalone="no"?>
<!DOCTYPE svg PUBLIC "-//W3C//DTD SVG 20010904//EN"
 "http://www.w3.org/TR/2001/REC-SVG-20010904/DTD/svg10.dtd">
<svg version="1.0" xmlns="http://www.w3.org/2000/svg"
 width="1776.000000pt" height="2108.000000pt" viewBox="0 0 1776.000000 2108.000000"
 preserveAspectRatio="xMidYMid meet">

<g transform="translate(0.000000,2108.000000) scale(0.100000,-0.100000)"
fill="#000000" stroke="none">
<path d="M16390 21069 c0 -7 -10 -9 -25 -7 -15 3 -25 1 -25 -7 0 -15 -43 -35
-75 -35 -15 0 -25 -6 -25 -14 0 -16 -21 -26 -56 -26 -16 0 -23 -4 -18 -11 10
-17 -16 -29 -63 -29 -36 0 -43 -3 -43 -20 0 -20 -19 -26 -77 -22 -17 0 -22 -4
-20 -21 2 -19 -4 -23 -43 -27 -31 -3 -45 -10 -45 -20 0 -10 -14 -17 -45 -20
-31 -3 -45 -10 -45 -20 0 -9 -11 -16 -30 -18 -69 -6 -95 -13 -95 -27 0 -8 -10
-16 -22 -17 -13 -1 -30 -2 -38 -4 -8 -1 -26 -2 -40 -3 -20 -1 -22 -3 -10 -11
13 -9 13 -11 0 -20 -8 -5 -34 -10 -56 -10 -33 0 -43 -4 -47 -20 -4 -17 -14
-20 -66 -20 -55 0 -80 -12 -48 -23 27 -10 -8 -22 -74 -25 -47 -3 -69 -8 -69
-17 0 -15 -43 -25 -119 -26 -31 -1 -48 -3 -38 -6 48 -13 -6 -32 -92 -34 -41 0
-105 -17 -73 -18 7 -1 10 -5 7 -11 -3 -5 -36 -10 -73 -10 -37 0 -74 -5 -82
-10 -13 -8 -12 -10 3 -10 9 0 17 -4 17 -10 0 -12 7 -11 -120 -19 -58 -3 -103
-10 -102 -15 7 -19 -27 -26 -125 -26 -62 0 -103 -4 -103 -10 0 -5 6 -10 13
-11 25 -2 -61 -18 -133 -25 -43 -3 -79 -12 -85 -20 -7 -8 -37 -14 -90 -15 -96
-3 -115 -7 -109 -24 7 -17 -40 -25 -150 -25 -50 0 -98 -5 -106 -10 -8 -5 -10
-10 -5 -10 6 0 3 -5 -5 -10 -8 -5 -66 -10 -128 -10 -107 0 -113 -1 -107 -19 5
-17 -2 -19 -87 -26 -72 -6 -97 -12 -111 -26 -15 -16 -33 -19 -128 -19 -84 0
-110 -3 -106 -12 6 -19 -74 -34 -161 -32 -57 1 -72 -1 -68 -11 6 -18 -15 -25
-72 -25 -26 0 -54 -5 -62 -10 -13 -8 -13 -10 0 -10 10 0 11 -3 4 -10 -6 -6
-50 -14 -98 -17 -48 -3 -82 -9 -75 -13 29 -18 -7 -30 -92 -30 -53 0 -89 -4
-89 -10 0 -5 5 -10 12 -10 8 0 9 -3 2 -10 -6 -6 -45 -11 -87 -12 -42 -1 -77
-5 -77 -10 0 -4 5 -8 11 -8 8 0 8 -5 -1 -15 -8 -9 -30 -15 -56 -15 -31 0 -44
-4 -44 -14 0 -16 -30 -26 -83 -26 -25 0 -36 -4 -31 -11 9 -15 -14 -29 -48 -29
-38 0 -58 -10 -51 -26 4 -11 -6 -14 -43 -15 -27 -1 -57 -1 -66 0 -13 2 -17 -4
-15 -21 2 -20 -3 -23 -35 -26 -25 -2 -41 -10 -48 -23 -8 -14 -21 -19 -51 -19
-28 0 -39 -4 -36 -12 5 -18 -23 -37 -55 -38 -18 0 -28 -5 -28 -15 0 -9 -9 -15
-22 -15 -29 0 -52 -15 -44 -28 7 -11 -16 -22 -46 -22 -11 0 -22 -8 -25 -20 -4
-15 -14 -20 -39 -20 -24 0 -37 -6 -41 -17 -9 -25 -23 -33 -57 -33 -16 0 -26
-3 -23 -7 11 -10 -14 -33 -35 -33 -11 0 -29 -11 -40 -25 -11 -14 -26 -25 -34
-25 -8 0 -14 -6 -14 -14 0 -8 -9 -17 -19 -21 -10 -3 -21 -15 -24 -25 -3 -13
-14 -20 -30 -20 -16 0 -26 -7 -30 -20 -4 -15 -14 -20 -37 -20 -24 0 -31 -4
-27 -14 7 -17 -18 -41 -32 -32 -5 4 -11 -4 -13 -16 -2 -15 -11 -24 -25 -26
-13 -2 -20 -9 -17 -16 3 -7 -7 -18 -21 -24 -14 -6 -25 -18 -25 -26 0 -8 -10
-16 -22 -18 -15 -2 -22 -9 -20 -19 3 -18 -23 -33 -40 -23 -5 3 -9 0 -7 -7 3
-29 -2 -39 -21 -39 -13 0 -20 -7 -20 -20 0 -15 -7 -20 -26 -20 -14 0 -23 -4
-20 -9 10 -16 -5 -41 -25 -41 -11 0 -19 -7 -19 -16 0 -9 -9 -18 -20 -21 -11
-3 -20 -14 -20 -24 0 -12 -7 -19 -20 -19 -18 0 -25 -10 -21 -32 1 -8 -14 -12
-36 -9 -8 1 -12 -7 -10 -21 1 -17 -4 -24 -20 -26 -15 -2 -23 -10 -23 -23 0
-14 -7 -19 -25 -19 -17 0 -23 -4 -19 -14 3 -9 -3 -20 -15 -28 -12 -7 -21 -18
-21 -25 0 -6 -9 -15 -20 -18 -11 -3 -20 -11 -20 -17 0 -6 -16 -25 -35 -44 -19
-18 -35 -40 -35 -48 0 -9 -7 -16 -15 -16 -8 0 -15 -9 -15 -20 0 -11 -7 -23
-15 -26 -8 -4 -15 -12 -15 -20 0 -7 -8 -18 -19 -23 -10 -6 -26 -26 -35 -44 -8
-19 -22 -40 -31 -47 -8 -7 -15 -19 -15 -26 0 -8 -4 -14 -10 -14 -5 0 -10 -6
-10 -14 0 -8 -7 -16 -15 -20 -8 -3 -15 -17 -15 -31 0 -14 -6 -25 -13 -25 -8 0
-19 -18 -26 -41 -8 -27 -17 -39 -26 -35 -10 3 -15 -9 -20 -45 -5 -37 -11 -49
-21 -45 -10 4 -14 -3 -14 -22 0 -27 -29 -80 -30 -54 0 6 -4 12 -10 12 -5 0
-10 -22 -10 -50 0 -39 -4 -52 -20 -60 -11 -6 -20 -21 -20 -33 0 -26 -29 -72
-30 -48 0 8 -3 11 -7 7 -8 -8 -9 -13 -12 -73 0 -20 -6 -33 -14 -33 -8 0 -19
-22 -26 -54 -9 -41 -16 -53 -27 -49 -11 4 -14 -6 -14 -52 0 -48 -3 -58 -20
-62 -17 -5 -20 -14 -20 -59 0 -53 -18 -120 -27 -96 -13 34 -23 4 -23 -67 0
-70 -2 -79 -20 -84 -18 -5 -20 -14 -20 -95 0 -99 -5 -123 -24 -116 -17 6 -26
-45 -26 -143 0 -58 -3 -71 -14 -67 -18 7 -24 -60 -31 -407 -6 -274 -4 -314 21
-323 23 -9 174 6 167 17 -9 15 19 27 67 27 32 0 41 3 30 10 -21 13 -10 19 58
31 45 8 59 14 55 25 -4 10 4 14 28 15 19 1 38 1 43 0 6 -1 21 0 34 4 19 5 21
9 12 20 -14 17 7 23 90 27 46 3 55 6 52 21 -3 15 7 17 78 17 47 0 80 4 80 10
0 6 -8 10 -17 10 -10 1 -3 7 16 15 19 9 64 15 107 15 59 0 74 3 74 15 0 11 13
15 58 16 60 1 180 15 150 18 -29 2 -20 18 13 25 17 3 73 7 123 7 93 1 178 14
126 19 -24 2 -24 3 5 10 17 4 140 8 275 10 135 1 254 5 265 10 16 7 14 9 -14
9 -28 1 -32 4 -23 14 10 9 91 13 314 16 166 2 295 7 287 12 -34 21 52 29 302
29 204 0 260 3 256 13 -7 21 53 37 144 37 66 0 88 3 86 13 -1 9 29 14 113 18
63 4 116 7 117 8 1 0 0 7 -3 15 -6 15 41 26 113 26 32 0 45 5 53 20 9 17 21
20 86 20 69 0 75 2 69 19 -4 15 1 20 26 25 17 3 41 6 54 6 12 0 30 9 40 20 14
15 31 20 73 20 42 0 53 3 49 14 -6 15 25 29 56 26 11 -1 21 7 24 19 4 16 13
21 42 21 39 0 65 12 59 26 -1 5 21 13 50 18 36 6 51 13 48 22 -6 15 15 24 55
24 26 0 29 3 24 20 -6 18 -2 20 35 20 26 0 39 4 35 10 -11 19 16 40 51 40 25
0 32 4 28 14 -4 11 6 16 39 21 33 5 44 11 43 23 -1 12 8 18 28 20 18 2 30 11
33 23 5 17 22 23 61 22 8 -1 11 5 7 15 -7 18 11 32 43 32 15 0 22 6 22 20 0
14 7 20 24 20 16 0 23 5 22 17 0 10 9 22 22 28 12 5 22 15 22 21 0 6 18 14 40
18 28 4 38 10 34 20 -3 9 6 17 25 24 17 6 31 18 31 26 0 14 18 21 42 17 4 0 7
9 5 21 -1 15 5 23 21 27 13 3 23 9 23 14 -2 23 1 27 18 27 12 0 21 9 25 25 4
16 13 25 26 25 11 0 20 6 20 14 0 7 10 16 21 19 14 4 20 11 16 20 -3 9 4 19
19 26 13 6 24 17 24 26 0 11 10 15 35 15 28 0 35 4 35 20 0 14 9 21 36 26 34
6 36 8 32 42 -3 27 0 36 13 39 9 3 19 13 22 24 3 10 12 19 21 19 14 0 20 12
17 33 -1 7 14 11 37 8 7 -1 12 9 12 24 0 18 5 25 20 25 13 0 20 7 20 20 0 13
7 20 19 20 10 0 21 9 24 21 3 11 14 23 25 26 11 3 22 13 25 24 3 10 12 19 21
19 9 0 16 8 16 20 0 13 7 20 20 20 13 0 20 7 20 20 0 18 10 25 33 21 4 0 7 8
7 19 0 11 7 23 15 26 8 4 15 13 15 20 0 8 7 17 15 20 8 4 15 14 15 25 0 10 6
22 13 26 7 4 19 23 26 41 11 26 18 31 33 26 18 -5 19 -3 13 25 -6 26 -4 31 13
31 12 0 19 6 18 17 0 9 9 22 21 28 13 7 21 14 18 16 -2 3 9 20 25 38 17 18 30
41 30 52 0 10 5 19 10 19 6 0 10 9 10 20 0 14 5 18 16 13 12 -4 15 0 13 18 -4
31 8 50 26 42 12 -4 15 4 15 36 0 27 5 44 14 47 8 3 16 14 19 25 3 11 15 23
25 26 13 3 24 18 30 41 5 21 14 36 20 34 7 -1 12 7 12 17 0 11 5 23 10 26 6 3
10 15 10 26 0 10 6 19 14 19 8 0 16 16 20 41 6 35 9 39 28 33 18 -6 20 -3 14
21 -8 32 10 61 29 45 9 -7 12 3 14 42 1 50 15 83 31 73 4 -3 11 15 14 40 4 25
11 45 17 45 5 0 9 -5 9 -12 0 -27 12 4 19 49 5 38 11 48 25 46 12 -1 16 4 12
14 -4 8 -2 32 4 54 8 27 15 37 25 33 12 -5 15 3 15 34 0 53 8 72 30 72 13 0
17 5 13 20 -8 31 5 67 27 73 17 4 20 13 20 56 0 37 4 51 14 51 16 0 26 21 26
55 0 33 10 55 25 55 14 0 25 43 25 97 0 21 6 36 15 39 9 4 15 19 15 41 0 37
17 62 38 55 8 -2 12 12 12 52 0 45 4 58 20 68 15 10 20 24 21 63 0 44 17 111
18 76 1 -11 4 -11 16 -1 10 9 15 32 15 76 0 34 5 66 10 69 6 3 10 0 11 -7 2
-34 18 34 19 82 2 50 17 123 19 93 1 -7 6 -13 11 -13 6 0 10 24 11 53 1 64 12
103 27 100 8 -2 12 16 12 55 0 65 9 86 33 76 15 -5 17 5 17 95 l0 101 -90 0
c-60 0 -90 -4 -90 -11z"/>
<path d="M8010 18211 c0 -12 -9 -21 -25 -25 -14 -4 -25 -11 -25 -16 0 -6 -6
-10 -14 -10 -21 0 -28 -64 -24 -216 3 -118 5 -131 25 -151 12 -12 25 -34 29
-47 3 -14 12 -27 20 -30 8 -3 14 -11 14 -19 0 -22 24 -67 36 -67 6 0 16 -11
22 -25 6 -14 16 -25 22 -25 5 0 10 -11 10 -25 0 -14 11 -37 25 -51 17 -17 24
-32 20 -44 -4 -13 -1 -17 11 -16 13 1 21 -11 28 -40 6 -22 16 -39 22 -37 6 2
17 -15 24 -38 8 -23 20 -43 27 -46 7 -3 13 -21 13 -40 0 -26 5 -36 19 -40 14
-3 21 -17 26 -49 5 -35 10 -44 26 -44 16 0 19 -7 19 -40 0 -27 4 -40 14 -40
13 0 31 -50 28 -81 -1 -10 6 -16 16 -15 11 1 18 -7 20 -24 5 -48 13 -71 22
-65 12 8 19 -6 25 -56 3 -28 12 -49 25 -58 15 -10 20 -25 20 -58 0 -25 4 -42
9 -38 16 10 31 -31 31 -85 0 -43 3 -51 15 -46 19 7 35 -30 35 -80 0 -22 6 -37
15 -40 11 -4 15 -21 15 -58 0 -54 11 -83 28 -72 13 8 22 -27 22 -89 0 -54 11
-81 29 -71 8 5 11 -19 11 -83 0 -81 10 -115 23 -78 11 30 21 -11 25 -98 4 -81
7 -94 23 -98 17 -5 19 -17 20 -134 1 -70 3 -120 6 -110 2 9 8 17 12 17 17 0
31 -148 31 -327 0 -106 4 -182 9 -175 15 24 21 -43 21 -225 0 -152 -2 -174
-15 -169 -13 5 -15 -19 -15 -174 0 -99 -4 -188 -9 -198 -5 -9 -12 -25 -15 -36
-5 -15 -13 -18 -47 -13 -43 6 -62 17 -41 24 29 11 8 22 -45 25 -44 2 -58 7
-58 18 0 10 -12 16 -39 18 -26 2 -40 9 -43 21 -3 11 -20 21 -46 27 -25 5 -41
14 -40 22 2 6 -5 12 -16 12 -36 0 -80 21 -74 36 4 11 -5 14 -37 14 -33 0 -43
4 -47 19 -4 15 -15 21 -47 23 -34 2 -42 7 -44 26 -2 12 -8 20 -13 17 -5 -3
-24 -3 -44 1 -25 4 -35 11 -35 25 0 16 -8 19 -44 19 -56 0 -76 8 -69 26 4 10
-3 14 -23 14 -47 0 -76 11 -70 26 4 10 -5 14 -34 14 -29 0 -43 5 -52 20 -8 12
-24 20 -43 21 -51 2 -80 14 -77 32 2 14 -5 17 -42 17 -35 0 -48 5 -56 20 -7
14 -21 20 -45 20 -48 0 -94 18 -75 30 21 13 0 19 -75 22 -42 2 -59 7 -58 16 2
7 -7 12 -22 12 -42 0 -106 24 -100 37 3 10 -10 13 -49 13 -64 0 -86 7 -86 26
0 10 -16 14 -62 14 -70 0 -92 9 -82 33 5 14 -6 17 -83 19 -70 2 -88 6 -88 18
0 12 -17 16 -77 20 -79 5 -103 14 -78 30 18 12 21 11 -125 19 -88 4 -119 9
-117 19 1 9 -18 12 -71 12 -80 0 -187 18 -187 31 0 5 7 6 15 3 8 -4 15 -1 15
5 0 8 -54 11 -174 11 -182 0 -206 3 -206 26 0 12 -80 14 -504 14 -495 0 -504
0 -509 -20 -5 -19 -14 -20 -186 -20 -104 0 -181 -4 -181 -9 0 -5 8 -12 18 -14
13 -4 12 -5 -5 -6 -12 0 -25 -5 -28 -11 -3 -6 -52 -10 -111 -10 -78 0 -103 -3
-101 -12 1 -9 -14 -14 -48 -15 -27 -2 -69 -5 -93 -9 -35 -4 -41 -8 -32 -19 13
-15 -14 -23 -100 -27 -26 -2 -45 -8 -45 -15 0 -19 -8 -22 -73 -24 -54 -2 -62
-5 -57 -19 6 -20 -19 -30 -80 -30 -29 0 -44 -5 -53 -20 -9 -16 -23 -20 -62
-20 -35 0 -50 -4 -50 -13 0 -17 -42 -37 -75 -37 -15 0 -24 -5 -22 -12 1 -8
-11 -14 -33 -16 -60 -4 -77 -11 -83 -32 -4 -15 -13 -20 -40 -20 -26 0 -36 -5
-40 -20 -4 -16 -14 -20 -52 -20 -41 0 -46 -2 -40 -19 5 -15 0 -21 -25 -26 -16
-4 -35 -15 -40 -26 -7 -12 -21 -19 -40 -19 -20 0 -30 -5 -30 -15 0 -9 -14 -17
-39 -21 -27 -4 -41 -12 -44 -25 -3 -13 -14 -19 -31 -19 -19 0 -26 -5 -26 -20
0 -21 -38 -37 -66 -26 -11 4 -15 2 -11 -8 7 -19 -12 -36 -41 -36 -15 0 -21 -4
-16 -12 10 -15 -23 -37 -46 -31 -14 4 -20 0 -20 -12 0 -9 -13 -22 -30 -28 -16
-6 -30 -17 -30 -24 0 -7 -11 -15 -25 -19 -16 -4 -25 -13 -25 -25 0 -14 -7 -19
-30 -19 -23 0 -30 -4 -30 -20 0 -15 -7 -20 -25 -20 -18 0 -28 -7 -35 -25 -6
-15 -17 -25 -30 -25 -12 0 -20 -7 -20 -16 0 -9 -9 -18 -20 -21 -11 -3 -20 -12
-20 -19 0 -8 -11 -19 -25 -26 -13 -6 -22 -15 -19 -20 3 -4 -8 -14 -24 -21 -16
-6 -27 -18 -25 -24 3 -7 -7 -17 -21 -23 -14 -5 -25 -15 -24 -22 2 -7 -7 -14
-19 -16 -13 -2 -23 -10 -23 -18 0 -18 -53 -74 -69 -74 -6 0 -11 -5 -11 -11 0
-14 -55 -69 -69 -69 -7 0 -16 -11 -21 -25 -5 -14 -16 -25 -25 -25 -8 0 -15 -7
-15 -16 0 -9 -9 -18 -20 -21 -11 -3 -20 -10 -20 -17 0 -15 -64 -76 -79 -76 -7
0 -9 -4 -6 -10 3 -5 -10 -24 -29 -42 -19 -18 -36 -42 -38 -53 -2 -13 -10 -19
-22 -17 -14 3 -16 -1 -11 -18 5 -16 2 -23 -13 -26 -10 -3 -25 -21 -32 -39 -7
-18 -21 -36 -32 -38 -12 -4 -17 -13 -16 -28 2 -15 -2 -24 -12 -24 -8 0 -16
-10 -18 -21 -2 -12 -12 -24 -23 -27 -10 -3 -19 -12 -19 -21 0 -9 -4 -16 -9
-16 -5 0 -11 -10 -13 -22 -2 -13 -9 -22 -16 -20 -7 1 -12 -8 -12 -22 0 -16 -7
-26 -21 -29 -12 -3 -18 -10 -14 -16 3 -6 1 -11 -4 -11 -6 0 -11 -7 -11 -15 0
-8 -9 -23 -20 -32 -11 -10 -20 -25 -20 -35 0 -10 -11 -25 -25 -34 -19 -13 -23
-22 -19 -41 5 -19 2 -25 -13 -29 -13 -4 -25 -21 -33 -45 -11 -33 -15 -37 -28
-26 -13 10 -15 8 -9 -20 4 -18 3 -33 -2 -33 -5 0 -11 -9 -14 -21 -3 -12 -10
-18 -16 -14 -7 4 -11 -5 -11 -24 0 -20 -5 -31 -14 -31 -16 0 -31 -35 -28 -61
2 -9 -9 -24 -23 -33 -15 -10 -25 -26 -25 -41 0 -13 -11 -36 -25 -51 -14 -15
-25 -39 -25 -55 0 -21 -4 -27 -15 -23 -11 4 -15 -1 -15 -17 0 -44 -20 -99 -37
-99 -9 0 -13 -6 -9 -15 8 -21 -13 -75 -30 -75 -10 0 -14 -12 -14 -39 0 -29 -6
-42 -22 -53 -15 -10 -23 -26 -23 -49 -3 -81 -5 -88 -20 -83 -15 6 -23 -14 -27
-76 -2 -25 -8 -35 -19 -34 -13 1 -18 -12 -22 -63 -7 -71 -15 -92 -27 -73 -5 8
-11 -16 -15 -56 -5 -47 -13 -75 -26 -87 -10 -9 -16 -24 -13 -32 11 -28 -6 -84
-26 -90 -18 -6 -20 -16 -20 -90 0 -92 -5 -115 -26 -115 -9 0 -14 -12 -14 -37
0 -54 -11 -113 -20 -108 -19 12 -30 -30 -32 -133 -2 -67 -7 -112 -13 -111 -14
0 -23 -37 -25 -111 -1 -59 -16 -163 -19 -132 0 6 -5 12 -11 12 -6 0 -10 -58
-10 -155 0 -158 -15 -279 -31 -240 -4 11 -9 -77 -10 -195 -2 -170 -4 -195 -9
-120 -3 52 -7 -292 -7 -765 0 -473 3 -846 7 -830 6 23 8 15 9 -37 1 -52 4 -66
15 -62 19 7 26 -56 27 -255 1 -91 4 -156 6 -143 13 67 31 -34 34 -192 2 -75
11 -120 24 -118 6 1 11 -45 13 -120 2 -112 12 -155 32 -143 10 6 20 -71 20
-149 0 -50 4 -63 20 -74 18 -11 20 -23 20 -106 0 -84 2 -94 19 -99 15 -4 21
-18 26 -71 4 -37 5 -80 1 -97 -5 -26 -4 -30 8 -20 18 15 22 3 31 -91 4 -45 11
-68 19 -68 15 0 26 -63 26 -149 0 -39 3 -51 10 -41 16 26 29 -1 32 -70 2 -49
7 -65 18 -65 16 0 31 -63 27 -112 -2 -20 4 -31 18 -38 17 -9 21 -22 23 -77 2
-51 6 -66 16 -62 15 6 26 -35 26 -93 0 -26 4 -34 14 -30 16 7 26 -13 26 -51 0
-42 11 -72 26 -72 10 0 14 -15 16 -52 0 -29 1 -60 2 -68 1 -8 10 -15 21 -15
17 0 20 -8 23 -50 3 -50 17 -79 33 -69 5 3 9 -18 9 -45 0 -43 3 -51 19 -51 23
0 31 -19 31 -71 0 -29 3 -37 14 -33 10 4 16 -9 21 -54 5 -47 10 -59 23 -58 13
1 18 -10 22 -44 3 -31 10 -45 20 -45 10 0 18 -17 25 -53 6 -29 14 -50 18 -45
12 11 27 -18 27 -53 0 -23 5 -33 20 -37 16 -4 20 -14 20 -50 0 -36 4 -46 20
-50 14 -3 21 -17 26 -46 4 -23 12 -41 19 -41 8 0 16 -19 20 -49 5 -36 10 -48
20 -45 9 4 16 -6 21 -30 3 -20 14 -42 24 -49 9 -6 20 -29 24 -49 4 -23 13 -38
21 -38 9 0 15 -10 15 -25 0 -15 12 -38 27 -53 17 -17 26 -36 24 -49 -2 -17 1
-21 13 -17 12 4 16 0 16 -15 0 -12 5 -21 11 -21 7 0 9 -9 5 -24 -4 -18 -2 -23
11 -22 12 1 20 -12 27 -42 6 -24 14 -41 18 -37 4 4 16 -13 27 -38 11 -24 28
-47 36 -51 11 -4 14 -12 10 -27 -5 -15 -2 -22 13 -26 23 -5 36 -42 25 -69 -5
-13 -3 -16 10 -11 12 4 21 -3 33 -29 9 -20 28 -42 40 -51 13 -8 21 -19 19 -24
-3 -4 4 -13 15 -19 11 -6 20 -16 19 -23 -3 -25 1 -38 11 -32 5 3 18 -12 27
-35 10 -22 23 -40 30 -40 8 0 13 -14 13 -36 0 -28 3 -35 15 -30 9 3 15 0 15
-9 0 -8 5 -15 10 -15 6 0 10 -6 10 -14 0 -8 9 -18 20 -21 13 -4 20 -15 20 -31
0 -13 6 -24 13 -24 13 0 37 -44 37 -67 0 -8 8 -13 17 -11 11 2 19 -5 21 -17 2
-11 10 -24 18 -28 8 -4 14 -17 14 -27 0 -11 5 -20 10 -20 6 0 10 -7 10 -15 0
-8 7 -15 15 -15 9 0 20 -11 24 -24 5 -13 17 -26 25 -29 9 -4 16 -13 16 -22 0
-8 9 -15 20 -15 15 0 20 -7 20 -25 0 -16 6 -25 15 -25 8 0 15 -9 15 -19 0 -10
7 -22 16 -25 9 -4 14 -9 11 -13 -4 -3 5 -14 18 -25 14 -11 23 -24 20 -29 -4
-5 1 -9 10 -9 8 0 20 -11 25 -25 5 -14 15 -24 22 -23 7 2 17 -7 22 -19 6 -12
18 -24 28 -26 10 -3 18 -12 18 -20 0 -8 10 -17 21 -20 17 -5 20 -11 15 -31 -5
-20 -3 -24 9 -20 10 4 20 -7 32 -35 10 -23 22 -41 27 -41 12 0 116 -106 116
-118 0 -5 9 -12 20 -15 11 -3 20 -12 20 -19 0 -8 12 -20 26 -26 14 -7 23 -16
20 -21 -3 -5 4 -11 15 -14 11 -3 23 -14 26 -25 3 -11 13 -22 24 -25 10 -3 19
-12 19 -21 0 -9 5 -16 10 -16 13 0 80 -66 80 -79 0 -5 9 -11 20 -14 11 -3 20
-12 20 -19 0 -8 12 -20 26 -26 14 -7 23 -16 20 -21 -3 -5 3 -11 14 -14 11 -3
24 -16 29 -29 6 -12 10 -19 10 -15 2 14 41 -13 41 -28 0 -9 10 -15 23 -15 16
0 28 -9 35 -26 7 -14 16 -23 21 -20 16 10 41 -5 39 -23 -2 -10 5 -17 20 -19
13 -2 22 -10 22 -22 0 -11 10 -20 25 -24 14 -4 24 -12 22 -18 -1 -7 8 -14 20
-16 13 -2 29 -12 36 -22 7 -10 24 -20 37 -22 17 -2 26 -10 28 -25 2 -15 10
-23 24 -23 11 0 22 -8 25 -20 3 -11 12 -20 19 -20 8 0 19 -11 24 -25 6 -15 17
-25 29 -25 11 0 24 -6 28 -14 4 -8 19 -16 33 -18 14 -1 29 -13 35 -25 5 -13
17 -23 27 -23 9 0 19 -9 23 -19 3 -10 16 -22 29 -25 13 -3 26 -15 29 -26 4
-15 13 -20 36 -20 21 0 31 -5 31 -16 0 -8 14 -20 30 -25 17 -6 30 -17 30 -25
0 -7 15 -16 35 -20 19 -3 35 -11 35 -18 0 -6 10 -16 23 -21 12 -6 21 -17 19
-27 -2 -13 6 -17 35 -20 30 -2 37 -7 35 -20 -2 -14 4 -18 33 -18 25 0 38 -5
42 -17 8 -23 23 -33 49 -33 13 0 24 -8 27 -19 3 -12 15 -21 33 -23 20 -2 28
-8 26 -19 -2 -13 9 -18 42 -23 34 -5 44 -11 39 -22 -4 -11 4 -14 31 -14 34 0
41 -6 37 -38 -1 -8 12 -12 37 -12 31 0 41 -4 45 -20 4 -15 14 -20 37 -20 23 0
33 -5 37 -19 3 -13 17 -21 48 -25 30 -5 44 -12 48 -26 3 -13 16 -20 43 -22 31
-2 38 -7 36 -21 -2 -13 2 -18 15 -16 35 5 85 -12 79 -27 -4 -11 4 -14 34 -14
29 0 42 -5 50 -20 7 -13 21 -20 43 -21 43 -1 72 -13 72 -30 0 -9 14 -15 42
-17 30 -2 46 -9 53 -23 7 -11 21 -19 38 -19 44 0 74 -11 68 -26 -3 -9 9 -15
42 -19 75 -10 77 -11 75 -23 -2 -8 12 -12 40 -12 36 -1 113 -29 80 -30 -7 0
-13 -4 -13 -10 0 -6 28 -10 64 -10 55 0 64 -3 69 -20 4 -17 14 -20 69 -21 34
0 72 -4 83 -8 19 -8 19 -8 0 -18 -17 -10 -16 -12 15 -17 19 -3 58 -7 85 -8 33
-2 49 -7 48 -15 -3 -15 21 -21 104 -26 65 -3 87 -12 64 -26 -8 -5 27 -12 88
-16 71 -5 101 -11 101 -20 0 -9 34 -14 135 -17 88 -2 139 -8 147 -16 9 -9 7
-12 -10 -12 -12 0 -22 -4 -22 -10 0 -6 60 -10 158 -11 97 0 149 -4 137 -9 -12
-5 125 -9 330 -9 229 -1 345 3 335 9 -11 7 3 10 48 10 34 0 62 4 62 10 0 6 -8
10 -17 10 -13 0 -14 3 -5 12 7 7 51 14 102 16 63 3 90 8 90 17 0 13 41 24 94
26 17 0 25 3 19 6 -24 9 -13 22 25 28 72 12 82 15 82 30 0 10 10 15 29 15 40
0 61 9 61 26 0 8 13 17 29 20 17 4 31 14 34 25 4 14 14 19 42 19 25 0 35 4 32
13 -5 17 23 36 55 37 16 0 27 5 25 12 -1 6 16 16 39 22 24 7 39 16 37 23 -3 7
8 15 24 19 56 12 63 16 63 30 0 10 13 14 50 14 43 0 50 3 50 19 0 24 63 36
150 28 67 -6 89 -15 69 -28 -18 -11 1 -17 61 -21 29 -2 44 -7 43 -15 -2 -7 16
-17 38 -23 27 -8 39 -16 35 -25 -3 -9 7 -16 32 -22 20 -6 36 -15 35 -21 -2 -7
6 -12 18 -12 29 0 59 -18 59 -35 0 -10 11 -15 35 -15 28 0 35 -4 35 -20 0 -16
7 -20 30 -20 23 0 33 -6 40 -24 7 -20 17 -25 50 -28 22 -2 40 -7 39 -12 -1
-14 24 -26 58 -26 40 0 63 -9 63 -24 0 -8 27 -16 73 -22 48 -6 71 -13 70 -21
-2 -10 16 -13 66 -13 70 0 144 -19 109 -27 -42 -10 -12 -23 55 -24 49 0 66 -3
52 -9 -12 -5 178 -9 448 -9 310 -1 466 2 462 9 -4 6 27 10 84 10 54 0 91 4 91
10 0 6 -6 10 -12 10 -8 0 -5 7 6 15 14 11 46 15 108 15 71 0 86 3 82 14 -4 12
13 16 85 21 71 6 89 10 81 20 -13 16 16 25 82 25 56 0 78 7 78 26 0 10 13 14
44 14 55 0 83 9 65 21 -22 13 -3 22 57 27 44 4 58 9 61 23 5 16 15 19 64 19
45 0 59 3 59 15 0 18 31 35 63 35 14 0 27 7 31 15 3 8 16 15 29 15 50 0 85 12
90 31 4 13 14 19 36 19 20 0 34 7 41 19 7 14 23 21 53 23 32 2 41 7 39 19 -2
17 24 29 64 29 13 0 24 8 27 20 4 16 14 20 46 20 28 0 41 4 41 13 0 17 45 38
64 31 8 -3 15 3 18 14 4 13 18 21 48 26 30 5 40 11 37 20 -4 10 5 16 28 20 21
4 35 13 38 26 4 15 14 20 37 20 23 0 33 5 37 19 5 20 56 36 76 24 6 -4 8 0 4
9 -7 20 11 38 41 38 13 0 21 4 17 9 -7 12 26 31 53 31 11 0 22 9 25 20 4 15
14 20 37 20 23 0 33 5 37 20 5 18 32 27 66 21 4 -1 12 10 17 24 6 16 17 25 31
25 12 0 23 8 26 20 3 13 14 20 28 20 16 0 25 7 29 25 5 20 13 25 36 25 19 0
30 5 30 14 0 7 13 16 29 19 17 4 30 14 34 26 3 12 13 21 25 21 21 0 46 23 35
33 -3 4 6 7 21 7 20 0 29 6 33 20 3 11 16 23 28 26 13 3 25 14 28 25 3 11 14
19 27 19 12 0 18 4 15 11 -8 13 23 38 48 39 9 0 17 7 17 15 0 9 10 15 26 15
17 0 28 6 31 19 2 10 16 24 29 30 13 6 24 17 24 26 0 8 8 15 18 15 11 0 24 11
30 25 7 14 20 25 31 25 11 0 25 9 31 20 6 11 20 20 30 20 11 0 20 6 20 13 0 8
11 19 25 25 14 6 25 16 25 22 0 6 12 15 26 20 17 7 24 15 20 25 -3 10 3 17 18
21 13 3 26 14 29 25 3 11 14 19 26 19 13 0 19 5 15 14 -6 15 29 40 40 29 3 -3
6 4 6 16 0 14 7 25 20 28 11 3 20 12 20 19 0 8 12 19 26 24 14 6 22 15 19 21
-4 6 3 13 15 16 12 3 26 17 31 30 5 13 13 21 19 18 5 -3 15 5 22 19 6 14 19
26 29 26 13 0 16 5 12 16 -4 10 1 17 16 21 11 3 21 12 21 19 0 8 11 20 25 26
14 6 25 17 25 24 0 7 10 14 23 16 15 2 21 9 19 21 -2 12 4 21 17 24 11 3 23
14 26 24 4 10 15 19 26 19 11 0 19 7 19 16 0 18 53 74 69 74 7 0 16 11 21 25
6 14 17 25 28 25 16 0 19 6 16 36 -2 29 2 37 22 44 13 5 24 16 24 25 0 8 6 15
13 15 8 0 19 12 25 26 7 14 17 22 23 19 6 -4 13 2 16 14 3 11 14 23 24 26 10
4 19 11 19 16 0 14 56 69 69 69 7 0 16 12 21 26 6 14 14 22 20 19 5 -3 10 3
10 13 0 11 7 22 15 26 8 3 15 15 15 26 0 11 6 20 14 20 8 0 13 8 12 17 0 9 8
22 19 27 11 6 20 18 20 26 0 8 10 16 22 18 14 2 20 8 16 18 -3 8 0 14 6 14 6
0 11 11 11 25 0 16 6 25 15 25 9 0 15 9 15 21 0 12 8 23 19 26 11 3 27 20 35
38 9 18 23 35 31 39 8 3 15 17 15 30 0 18 4 24 15 20 10 -4 15 0 15 13 0 10
11 30 25 45 14 15 25 39 25 53 0 18 5 25 19 25 10 0 21 9 24 20 3 13 14 20 28
20 12 0 20 3 16 6 -7 8 13 67 27 76 6 4 16 22 22 40 6 18 17 33 25 33 8 0 14
9 15 20 2 40 4 46 14 40 5 -3 18 12 27 35 10 22 23 40 30 40 7 0 13 10 13 23
1 28 25 61 40 52 8 -5 9 3 5 29 -6 32 -5 36 13 36 16 0 23 8 28 36 4 24 13 38
25 41 11 3 19 14 19 25 0 25 19 60 29 53 5 -2 11 13 15 35 4 24 14 43 25 50
13 6 17 17 14 30 -4 14 2 23 22 32 22 10 26 17 22 41 -3 22 1 31 14 34 10 3
23 23 30 49 9 30 18 43 29 41 11 -1 16 9 18 38 2 22 12 47 22 57 10 9 21 31
25 48 4 20 12 30 20 26 9 -3 15 10 20 45 4 31 12 49 20 49 9 0 15 14 17 37 2
28 9 41 26 48 18 8 22 18 22 53 0 24 4 41 8 38 12 -7 29 30 37 75 4 25 12 38
25 42 16 4 20 14 20 52 0 37 3 46 15 41 11 -4 16 6 21 43 8 59 20 82 33 63 5
-9 10 7 14 44 4 37 12 61 21 66 10 6 16 23 16 48 0 36 3 40 25 40 24 0 25 2
25 64 0 55 3 64 20 69 16 4 20 14 20 45 0 49 8 72 25 72 9 0 16 22 22 60 4 34
12 60 18 60 14 -2 23 29 24 76 1 45 26 79 34 47 3 -10 6 7 7 37 2 68 13 106
28 103 8 -2 12 15 12 50 0 57 11 83 31 75 11 -4 14 12 15 74 2 81 8 103 24 78
10 -16 19 25 23 110 1 41 6 55 17 55 10 0 16 12 17 35 8 105 15 139 27 134 14
-5 26 54 26 127 0 28 6 42 19 51 15 9 18 19 14 40 -7 34 16 158 29 158 5 0 6
-4 3 -10 -3 -5 -1 -10 4 -10 7 0 11 35 11 95 0 81 3 96 18 104 16 9 20 27 25
122 7 113 12 134 26 110 15 -24 21 17 21 149 0 106 3 131 17 145 12 13 18 47
24 143 4 70 8 138 9 151 0 24 1 24 14 6 12 -17 15 8 19 190 4 207 11 260 28
249 5 -3 9 -2 8 3 -1 4 0 166 2 358 1 197 5 317 9 275 4 -45 7 21 7 165 0 132
-3 220 -7 195 -4 -25 -8 109 -8 297 -2 229 -5 342 -13 345 -19 6 -29 83 -29
240 0 93 -4 159 -10 163 -5 3 -11 -2 -11 -12 -2 -37 -18 64 -20 127 -2 81 -11
127 -24 120 -6 -3 -11 38 -13 109 -2 100 -5 114 -21 118 -22 6 -31 42 -31 129
0 48 -3 64 -14 64 -20 0 -26 23 -26 105 0 63 -3 77 -21 94 -15 13 -22 34 -24
67 -2 30 -9 50 -19 56 -9 5 -16 21 -16 36 0 52 -13 102 -25 102 -14 0 -25 31
-25 75 0 33 -13 58 -26 53 -5 -1 -10 13 -12 32 -5 72 -13 104 -22 90 -15 -24
-21 -5 -22 64 0 61 -9 83 -21 54 -9 -21 -27 13 -27 50 0 22 -5 32 -15 32 -8 0
-15 7 -15 15 0 8 -5 15 -10 15 -6 0 -8 11 -4 26 5 19 1 29 -14 39 -12 9 -22
31 -26 60 -4 26 -12 44 -19 42 -7 -1 -16 18 -21 46 -5 26 -15 47 -22 47 -13 0
-24 22 -24 50 0 11 -8 24 -19 29 -10 6 -22 27 -25 46 -4 20 -16 45 -27 56 -10
10 -19 30 -19 44 0 16 -6 25 -15 25 -8 0 -15 6 -15 13 0 25 -31 77 -46 77 -8
0 -13 4 -10 9 11 18 -6 69 -25 74 -11 3 -19 14 -19 26 0 12 -6 21 -15 21 -8 0
-17 14 -21 36 -3 19 -15 41 -25 47 -11 7 -19 20 -19 30 0 10 -7 20 -15 23 -8
4 -15 10 -15 16 0 5 -11 21 -25 36 -14 15 -25 37 -25 50 0 15 -7 26 -19 29
-12 3 -17 11 -14 19 3 9 -1 14 -12 14 -9 0 -19 9 -22 19 -3 11 -11 22 -19 25
-8 3 -14 12 -14 20 0 8 -9 18 -20 21 -11 3 -20 14 -20 23 0 10 -9 25 -20 35
-11 9 -23 30 -26 46 -5 22 -10 27 -25 24 -13 -4 -20 2 -25 21 -3 14 -13 26
-21 26 -8 0 -17 9 -20 20 -3 11 -12 20 -19 20 -8 0 -14 9 -14 21 0 19 -24 51
-77 104 -13 12 -23 27 -23 34 0 6 -7 11 -15 11 -9 0 -20 11 -25 25 -5 14 -14
25 -21 25 -14 0 -69 55 -69 69 0 6 -5 11 -11 11 -13 0 -79 67 -79 80 0 4 -9
10 -21 13 -12 3 -18 10 -14 16 3 6 -6 16 -20 21 -18 7 -25 15 -21 25 3 9 0 15
-9 15 -17 0 -85 63 -85 79 0 6 -5 11 -12 11 -6 0 -29 19 -52 43 -23 24 -49 46
-59 50 -9 3 -16 12 -15 19 2 7 -8 14 -23 16 -16 2 -29 11 -32 21 -2 10 -18 21
-36 24 -17 4 -31 13 -31 21 0 7 -9 16 -21 19 -11 3 -23 15 -26 26 -3 12 -15
21 -32 23 -15 2 -26 9 -26 18 0 9 -12 17 -30 20 -18 3 -31 13 -35 25 -3 11
-11 20 -17 21 -7 1 -19 2 -27 3 -7 0 -16 10 -19 21 -4 14 -14 20 -35 20 -21 0
-31 6 -35 19 -3 11 -17 22 -36 26 -22 5 -31 11 -27 21 4 10 -4 14 -30 14 -27
0 -37 5 -41 20 -4 14 -14 20 -32 20 -32 0 -52 17 -44 36 4 10 -4 14 -31 14
-29 0 -36 4 -36 20 0 16 -7 20 -32 20 -38 0 -63 13 -54 28 8 13 -17 22 -60 22
-24 0 -34 5 -34 15 0 8 -7 15 -15 15 -25 0 -65 23 -65 37 0 9 -15 13 -50 13
-39 0 -53 4 -62 20 -8 13 -24 20 -43 20 -39 0 -57 12 -49 33 5 14 -4 16 -58
19 -48 2 -63 7 -63 18 0 10 -12 16 -35 18 -76 5 -102 13 -96 28 3 8 -1 15 -9
15 -8 1 -19 3 -25 4 -5 1 -33 3 -61 4 -41 1 -50 4 -45 16 4 12 -5 15 -53 15
-33 0 -71 7 -87 15 -20 10 -23 15 -11 15 9 0 17 4 17 10 0 5 -42 11 -92 12
-81 3 -93 5 -92 21 2 15 -9 17 -91 17 -51 0 -107 3 -124 6 -34 7 -42 24 -11
24 11 0 20 3 20 8 0 4 -102 7 -226 8 -154 1 -229 5 -237 13 -8 8 -7 11 3 11
13 0 13 2 0 10 -18 11 -560 11 -605 0 -28 -7 -28 -8 -5 -9 20 -1 22 -3 9 -11
-9 -5 -104 -10 -212 -12 -178 -3 -222 -8 -184 -21 33 -12 -16 -22 -118 -25
-102 -3 -114 -6 -118 -23 -5 -17 -15 -19 -111 -19 -64 0 -106 -4 -106 -10 0
-5 6 -10 13 -11 37 -2 -57 -28 -105 -29 -47 0 -56 -3 -52 -15 5 -12 -2 -15
-34 -15 -56 0 -103 -11 -96 -22 10 -16 -18 -28 -68 -28 -37 0 -50 -4 -58 -20
-9 -17 -21 -20 -70 -20 -33 0 -60 -4 -60 -10 0 -5 6 -10 13 -10 31 -1 -31 -30
-64 -30 -28 0 -38 -5 -42 -20 -4 -16 -14 -20 -46 -20 -28 0 -41 -4 -41 -13 0
-16 -41 -37 -70 -37 -11 0 -19 -6 -17 -12 1 -8 -12 -14 -36 -16 -25 -2 -40 -9
-44 -20 -9 -23 -23 -32 -54 -32 -18 0 -28 -6 -32 -20 -4 -14 -14 -20 -34 -20
-20 0 -31 -7 -38 -22 -6 -14 -21 -24 -36 -26 -17 -2 -29 -11 -32 -23 -4 -15
-14 -19 -46 -19 -31 0 -39 -3 -35 -15 4 -9 -3 -16 -20 -21 -15 -3 -31 -15 -37
-25 -5 -11 -18 -19 -29 -19 -30 0 -49 -11 -44 -25 4 -8 -5 -15 -24 -20 -18 -3
-32 -14 -35 -26 -4 -13 -14 -19 -35 -19 -22 0 -32 -6 -37 -20 -6 -17 -15 -22
-41 -19 -4 0 -12 -10 -18 -23 -7 -14 -22 -24 -39 -26 -15 -2 -27 -9 -27 -17 0
-7 -15 -16 -34 -19 -24 -5 -33 -12 -32 -24 1 -12 -8 -18 -31 -20 -25 -2 -33
-8 -33 -23 0 -15 -7 -19 -32 -20 -18 -1 -39 0 -47 1 -8 1 -12 -4 -8 -14 9 -22
-17 -38 -59 -34 -36 3 -63 28 -30 28 13 0 16 13 16 75 0 43 -4 75 -10 75 -5 0
-10 -6 -10 -12 0 -7 -7 0 -15 16 -20 39 -19 51 8 69 l23 15 2 391 c1 252 -2
391 -8 391 -6 0 -11 -21 -11 -47 l-2 -48 -9 45 c-6 25 -12 136 -15 248 -3 167
-7 202 -19 202 -10 0 -14 13 -14 48 0 27 -3 83 -6 125 -6 62 -10 75 -20 66
-17 -14 -22 9 -26 114 -3 62 -7 81 -21 88 -14 8 -17 25 -17 87 0 96 -7 122
-31 122 -17 0 -19 8 -19 70 0 53 -3 70 -14 70 -20 0 -26 23 -26 106 0 67 -11
95 -23 62 -7 -21 -27 40 -27 83 0 28 -4 39 -15 39 -13 0 -22 40 -16 74 1 4 -1
17 -5 28 -5 16 -8 18 -15 7 -13 -22 -22 -3 -27 57 -4 44 -9 58 -23 61 -11 3
-20 15 -20 27 -2 19 -3 32 -7 79 -1 11 -9 17 -19 15 -14 -2 -19 5 -21 35 -2
21 -12 47 -23 58 -12 12 -19 33 -19 59 0 28 -4 38 -13 34 -16 -6 -37 36 -37
75 0 16 -7 31 -15 35 -8 3 -15 13 -15 23 -1 19 -29 75 -30 58 -1 -22 -20 22
-20 47 0 17 -8 33 -20 40 -11 7 -20 23 -20 36 0 13 -11 34 -25 48 -15 15 -25
35 -23 47 2 13 -2 22 -10 22 -18 0 -32 25 -32 57 0 18 -4 26 -12 23 -13 -5
-38 37 -38 61 0 6 -7 14 -15 18 -8 3 -15 12 -15 20 0 18 -25 67 -36 69 -5 1
-9 12 -9 25 1 16 -4 21 -17 17 -13 -5 -20 3 -29 36 -8 26 -20 44 -32 47 -12 3
-17 11 -14 23 3 12 0 19 -9 19 -8 0 -20 14 -25 30 -6 17 -16 30 -22 30 -6 0
-7 3 -4 7 4 4 -6 12 -23 19 -16 7 -30 20 -30 29 0 13 -22 15 -160 15 -150 0
-160 -1 -160 -19z m-7513 -9643 c-1 -51 -3 -12 -3 87 0 99 2 141 3 93 2 -48 2
-129 0 -180z"/>
</g>
</svg>
